<?xml version="1.0" standalone="no"?>
<!DOCTYPE svg PUBLIC "-//W3C//DTD SVG 20010904//EN"
 "http://www.w3.org/TR/2001/REC-SVG-20010904/DTD/svg10.dtd">
<svg version="1.0" xmlns="http://www.w3.org/2000/svg"
 width="225.000000pt" height="225.000000pt" viewBox="0 0 225.000000 225.000000"
 preserveAspectRatio="xMidYMid meet">

<g transform="translate(0.000000,225.000000) scale(0.100000,-0.100000)"
fill="#000000" stroke="none">
<path d="M1036 2193 c-6 -47 -42 -133 -68 -163 -33 -38 -113 -94 -232 -159
-172 -95 -238 -144 -332 -245 -174 -185 -256 -396 -256 -651 0 -278 97 -503
299 -696 223 -210 517 -306 819 -265 462 62 786 387 834 838 27 245 -42 503
-185 697 -120 162 -231 249 -463 363 -150 73 -172 87 -246 158 -44 44 -97 99
-116 124 -19 25 -38 45 -41 46 -4 0 -9 -21 -13 -47z m42 -89 c6 -76 -1 -104
-34 -143 -19 -23 -23 -35 -16 -47 22 -39 -21 -106 -139 -219 -132 -127 -355
-265 -486 -301 -59 -16 -63 -16 -89 0 -22 15 -25 23 -20 49 10 50 61 120 149
204 87 83 169 141 307 215 198 108 266 174 292 286 16 64 28 48 36 -44z m-6
-1168 c38 -14 128 -64 213 -120 200 -130 201 -130 418 12 135 89 176 106 223
97 45 -8 90 -52 104 -103 51 -185 -101 -479 -224 -432 -14 5 -78 59 -141 119
-132 125 -162 141 -228 118 -23 -8 -113 -55 -201 -105 -224 -129 -246 -137
-386 -137 -99 0 -121 3 -156 22 -91 48 -130 127 -122 243 10 131 104 245 246
296 61 22 177 17 254 -10z m443 -460 c25 -11 41 -28 57 -61 21 -43 21 -46 4
-63 -17 -16 -19 -16 -29 2 -33 55 -54 66 -121 66 -59 0 -68 -3 -117 -40 -58
-43 -74 -48 -83 -25 -8 22 48 80 106 109 60 30 129 34 183 12z m119 -231 c10
-28 -6 -44 -75 -79 -93 -47 -161 -59 -294 -54 -85 3 -121 9 -160 27 -84 37
-110 77 -63 98 17 7 34 3 79 -20 108 -56 346 -47 454 17 49 29 51 30 59 11z"/>
</g>
</svg>
